<?xml version="1.0" standalone="no"?>
<!DOCTYPE svg PUBLIC "-//W3C//DTD SVG 20010904//EN"
 "http://www.w3.org/TR/2001/REC-SVG-20010904/DTD/svg10.dtd">
<svg version="1.0" xmlns="http://www.w3.org/2000/svg"
 width="512.000000pt" height="512.000000pt" viewBox="0 0 512.000000 512.000000"
 preserveAspectRatio="xMidYMid meet">
<metadata>
Created by potrace 1.14, written by Peter Selinger 2001-2017
</metadata>
<g transform="translate(0.000000,512.000000) scale(0.100000,-0.100000)"
fill="#000000" stroke="none">
<path d="M2378 5115 c-2 -1 -39 -5 -82 -9 -44 -4 -82 -9 -85 -11 -4 -2 -34 -7
-66 -10 -117 -14 -472 -111 -499 -136 -6 -5 -16 -9 -23 -9 -8 0 -44 -14 -81
-31 -37 -17 -83 -38 -102 -47 -63 -28 -243 -134 -330 -193 -81 -56 -115 -69
-218 -85 -20 -3 -40 -8 -44 -10 -4 -2 -26 -8 -50 -13 -24 -5 -77 -16 -118 -26
-41 -9 -84 -18 -95 -21 -22 -4 -127 -27 -135 -29 -3 -1 -32 -7 -65 -14 -202
-43 -285 -98 -349 -231 -27 -58 -31 -74 -30 -150 1 -58 10 -116 28 -185 15
-55 29 -111 32 -125 3 -14 17 -65 31 -115 14 -49 27 -99 29 -110 2 -11 10 -40
18 -65 12 -40 12 -50 -4 -95 -22 -61 -68 -220 -74 -258 -3 -15 -7 -35 -10 -45
-3 -9 -7 -34 -11 -56 -3 -21 -7 -41 -9 -45 -4 -6 -12 -72 -26 -201 -8 -85 -5
-454 4 -515 4 -22 13 -80 21 -130 29 -174 78 -357 142 -520 37 -93 123 -273
161 -335 12 -19 29 -48 38 -65 19 -35 138 -207 156 -227 7 -7 29 -34 48 -58
143 -185 404 -415 633 -556 302 -187 621 -304 982 -360 145 -22 519 -27 665
-8 496 64 935 251 1313 556 309 251 580 604 727 948 17 41 37 89 45 105 46
105 118 374 140 525 3 19 7 44 10 55 19 94 27 459 13 605 -59 593 -319 1138
-745 1565 -160 160 -331 291 -530 405 -81 46 -87 52 -108 105 -43 105 -132
186 -240 218 -66 19 -167 14 -280 -13 -86 -21 -149 -23 -225 -5 -14 3 -45 8
-70 11 -25 3 -56 7 -70 10 -27 6 -456 14 -462 9z"/>
</g>
</svg>
